<?xml version="1.0" encoding="iso-8859-1"?>
<!-- Generator: Adobe Illustrator 19.0.0, SVG Export Plug-In . SVG Version: 6.00 Build 0)  -->
<svg version="1.1" id="Layer_1" xmlns="http://www.w3.org/2000/svg" xmlns:xlink="http://www.w3.org/1999/xlink" x="0px" y="0px"
	 viewBox="0 0 512 512" style="enable-background:new 0 0 512 512;" xml:space="preserve">
<path style="fill:#25BBCC;" d="M451.786,250.232h43.997c0,131.532-105.908,238.333-237.101,239.761L451.786,250.232z"/>
<g>
	<path style="fill:#78E3EC;" d="M254.757,511.998c-0.152,0.002,0.001,0.002,0.169,0.001c0.168,0.001,0.321,0.001,0.169-0.001
		c0.104-0.001,0.123-0.002-0.169-0.002S254.652,511.996,254.757,511.998z"/>
	<path style="fill:#78E3EC;" d="M451.786,250.232H16.217c0,131.532,107.508,240.067,238.709,239.764
		C361.889,489.75,451.786,381.622,451.786,250.232z"/>
</g>
<path style="fill:#50D1DD;" d="M258.68,10.471l193.105,239.761h43.997C495.783,118.7,389.874,11.899,258.68,10.471z"/>
<g>
	<path style="fill:#A0F6FA;" d="M255.096,10.465c0.152-0.003-0.001-0.003-0.169-0.001c-0.168-0.001-0.321-0.001-0.169,0.001
		c-0.105,0.001-0.122,0.002,0.169,0.002S255.2,10.467,255.096,10.465z"/>
	<path style="fill:#A0F6FA;" d="M254.926,10.468C123.726,10.165,16.217,118.7,16.217,250.232h435.569
		C451.786,118.842,361.889,10.714,254.926,10.468z"/>
</g>
<path style="fill:#2F5E88;" d="M432.941,73.291C385.677,26.029,322.839,0,256,0S126.321,26.029,79.06,73.291
	C31.796,120.555,5.768,183.393,5.768,250.232c0,50.813,15.057,99.305,43.037,140.408l-24.512,91.298l91.298-24.511
	c41.103,27.979,89.596,43.037,140.409,43.037c66.84,0,129.677-26.029,176.941-73.291c47.262-47.264,73.291-110.102,73.291-176.941
	S480.203,120.555,432.941,73.291z M201.184,23.007c-14.125,12.626-27.026,30.246-38.117,52.428
	c-5.907,11.813-11.141,24.6-15.671,38.169h-80.92C98.677,69.064,146.165,36.28,201.184,23.007z M55.573,130.103h86.778
	c-9.518,34.023-14.864,72.16-15.517,111.88H22.428C23.85,201.189,35.769,163.02,55.573,130.103z M126.835,258.481
	c0.651,39.718,5.999,77.857,15.517,111.88H55.573c-19.804-32.917-31.723-71.086-33.145-111.88H126.835z M66.477,386.86h80.919
	c4.529,13.571,9.764,26.356,15.671,38.169c11.092,22.182,23.991,39.803,38.117,52.428C146.165,464.184,98.677,431.4,66.477,386.86z
	 M247.75,483.326c-26.007-4.02-50.579-26.981-69.925-65.675c-4.804-9.608-9.14-19.911-12.991-30.791h82.916V483.326z
	 M247.75,370.361h-88.248c-9.91-33.654-15.49-71.879-16.167-111.88H247.75V370.361z M247.75,241.983H143.336
	c0.675-40.001,6.256-78.225,16.167-111.88h88.248V241.983z M247.75,113.604h-82.916c3.851-10.88,8.187-21.183,12.991-30.791
	c19.347-38.694,43.919-61.655,69.925-65.675V113.604z M489.571,241.983H385.165c-0.651-39.718-5.999-77.857-15.517-111.88h86.778
	C476.229,163.02,488.149,201.189,489.571,241.983z M445.522,113.604h-80.919c-4.529-13.571-9.764-26.356-15.671-38.169
	c-11.092-22.182-23.991-39.803-38.117-52.428C365.835,36.28,413.323,69.064,445.522,113.604z M264.249,17.138
	c26.007,4.02,50.579,26.981,69.925,65.675c4.804,9.608,9.14,19.911,12.991,30.791h-82.916V17.138L264.249,17.138z M264.249,130.103
	h88.248c9.91,33.654,15.49,71.879,16.167,111.88H264.249V130.103z M264.249,258.481h104.414
	c-0.675,40.001-6.256,78.225-16.167,111.88h-88.248V258.481z M264.249,483.326V386.86h82.916
	c-3.851,10.88-8.187,21.183-12.991,30.791C314.828,456.345,290.256,479.306,264.249,483.326z M310.815,477.457
	c14.125-12.626,27.026-30.246,38.117-52.428c5.907-11.813,11.141-24.6,15.671-38.169h80.919
	C413.323,431.4,365.835,464.184,310.815,477.457z M456.426,370.361h-86.778c9.518-34.023,14.864-72.16,15.517-111.88h104.407
	C488.149,299.275,476.229,337.444,456.426,370.361z"/>
<g>
</g>
<g>
</g>
<g>
</g>
<g>
</g>
<g>
</g>
<g>
</g>
<g>
</g>
<g>
</g>
<g>
</g>
<g>
</g>
<g>
</g>
<g>
</g>
<g>
</g>
<g>
</g>
<g>
</g>
</svg>
